PathFileType	4	(X/Y/Z)	D:\TRACE\v60_Jaco2_6-2-23\BothDRS_Motion2_2-platform.trc
DataRate	CameraRate	NumFrames	NumMarkers	Units	OrigDataRate	OrigDataStartFrame	OrigNumFrames
100.00	100.00	      71	5	mm	100.00	6563	      7500
Frame#	Time	Left_Front			Right_Front			Left_Aft			Right_Aft			Post			
		X1	Y1	Z1	X2	Y2	Z2	X3	Y3	Z3	X4	Y4	Z4	X5	Y5	Z5	

6563	65.620	-823.66193	-47.94043	-649.95026	746.62555	-46.30471	-655.18567	-731.29547	45.52470	482.06085	710.42090	46.75000	490.18924	-37.28211	1218.40100	-1100.03931	
6564	65.630	-822.60834	-47.26054	-649.79761	747.52124	-45.37795	-655.09930	-730.11554	45.07415	482.17706	711.73523	46.48772	490.54526	-36.11769	1219.46851	-1099.12451	
6565	65.640	-821.76740	-46.78528	-649.47974	748.43622	-44.62535	-655.06055	-729.15338	44.53395	482.58234	712.33325	45.83839	490.69843	-35.07170	1220.53381	-1097.93115	
6566	65.650	-820.67981	-46.19436	-649.60370	749.66016	-43.92746	-654.96014	-728.72845	44.62902	482.01343	713.24652	45.52350	490.92300	-34.30426	1221.79883	-1096.85657	
6567	65.660	-819.67389	-45.65838	-649.62213	750.46906	-43.57677	-654.95874	-727.48950	44.03260	482.25681	714.57849	45.14018	491.12054	-33.45992	1222.90857	-1095.65527	
6568	65.670	-818.81793	-44.53893	-649.62061	751.16992	-42.75607	-654.65887	-726.84143	43.57831	482.30203	714.86530	44.51295	491.48529	-32.71474	1223.94971	-1093.85767	
6569	65.680	-818.12573	-43.82853	-649.33246	752.07593	-41.79524	-654.45160	-726.10101	43.23222	482.65506	716.03485	44.00209	491.46368	-31.43078	1225.15308	-1092.25391	
6570	65.690	-817.41095	-43.11401	-649.10706	752.57013	-41.37004	-654.73260	-725.34302	42.92106	482.83450	716.88940	43.72805	491.76111	-31.05394	1226.33997	-1090.41760	
6571	65.700	-817.18903	-42.81260	-649.01227	753.34332	-40.59841	-654.61206	-724.69159	42.64430	482.98065	717.35254	43.27034	491.72983	-30.44096	1227.27502	-1088.69299	
6572	65.710	-816.40973	-42.32588	-649.00995	753.96606	-40.22965	-654.39337	-724.13593	42.10958	483.13611	717.79095	42.88152	491.88290	-29.79759	1227.93860	-1086.86792	
6573	65.720	-815.74072	-41.73460	-649.10052	754.27118	-39.96634	-654.38184	-723.82965	41.77218	483.20383	718.38391	42.64178	492.06183	-29.35382	1228.95166	-1084.41602	
6574	65.730	-815.12225	-41.19241	-649.09894	754.57648	-39.62535	-654.28217	-723.31335	41.48301	483.41599	719.03156	42.23813	492.20084	-29.04019	1229.65356	-1082.23572	
6575	65.740	-814.85150	-40.75020	-648.83679	755.11829	-38.95795	-654.15533	-722.80530	41.13499	483.49179	719.40521	41.88054	492.34689	-28.71454	1230.74646	-1079.65771	
6576	65.750	-814.47235	-40.19741	-648.61847	755.81512	-38.39396	-653.94202	-722.38812	40.83762	483.59567	719.60809	41.54859	492.47330	-28.53316	1231.68030	-1077.26465	
6577	65.760	-814.21820	-39.76506	-648.59613	756.35040	-37.85807	-653.88971	-722.07513	40.42748	483.75903	719.91998	41.17141	492.67300	-28.06608	1232.56958	-1074.87390	
6578	65.770	-813.99744	-39.30840	-648.77728	756.19745	-37.53972	-654.06042	-721.88123	40.15302	483.90717	720.07666	40.73812	492.74591	-27.69709	1233.40710	-1072.34583	
6579	65.780	-813.85168	-38.75680	-648.64911	756.17566	-37.11933	-654.15149	-721.59485	39.74778	484.06943	720.29437	40.52161	492.80435	-28.12935	1234.33533	-1069.59509	
6580	65.790	-813.65802	-38.24189	-648.53333	756.36237	-36.46585	-654.03046	-721.45917	39.40839	484.19000	720.31793	40.11584	493.03427	-28.14403	1235.39453	-1066.92688	
6581	65.800	-813.58868	-37.65228	-648.26074	756.50555	-35.87880	-653.87531	-721.43842	39.20221	484.24570	720.36774	39.65158	493.23050	-27.93217	1236.23254	-1064.45911	
6582	65.810	-813.57050	-36.91383	-648.15735	756.51202	-35.49622	-653.75348	-721.45270	38.93295	484.35327	720.41888	39.35203	493.48013	-27.73949	1237.21082	-1061.75378	
6583	65.820	-813.59924	-36.63937	-648.28790	756.50061	-34.99761	-653.76733	-721.42871	38.51965	484.49689	720.57269	38.94429	493.52197	-28.04521	1238.27271	-1059.08215	
6584	65.830	-813.56317	-36.45356	-648.20923	756.51257	-34.65218	-653.74500	-721.42432	38.13071	484.64661	720.58130	38.62557	493.55835	-27.75856	1238.77966	-1056.06250	
6585	65.840	-813.52783	-36.05059	-648.12524	756.37921	-34.20987	-653.60413	-721.29773	37.78468	484.85205	720.55927	38.36170	493.59534	-27.80951	1239.75671	-1053.46484	
6586	65.850	-813.51129	-35.37700	-647.97632	756.48456	-33.44847	-653.38892	-721.25250	37.53585	484.94354	720.72711	38.12628	493.71942	-28.25138	1240.67090	-1051.81006	
6587	65.860	-813.48517	-34.65148	-647.96802	756.41321	-33.00748	-653.42896	-721.19391	37.35455	485.01053	720.78778	37.87741	493.83115	-28.29335	1241.28943	-1050.63770	
6588	65.870	-813.46313	-34.24637	-647.78650	756.47791	-32.61266	-653.32135	-721.27094	37.12364	485.10577	720.72687	37.60250	493.99622	-28.27452	1241.88550	-1050.52197	
6589	65.880	-813.42645	-34.13873	-647.71375	756.60455	-32.42166	-653.19983	-721.38751	36.81855	485.16739	720.51624	37.26697	494.04288	-27.95461	1242.36853	-1051.08105	
6590	65.890	-813.40125	-33.85599	-647.90582	756.58795	-32.16758	-653.21698	-721.29901	36.44194	485.28503	720.51563	36.95189	494.18417	-27.74201	1242.76343	-1052.04163	
6591	65.900	-813.13519	-33.16103	-647.63794	756.30865	-31.73098	-653.21460	-721.04742	35.96058	485.51331	720.18823	36.75734	494.32947	-27.70063	1243.14551	-1052.75085	
6592	65.910	-813.30463	-32.78768	-647.57861	756.44257	-31.29748	-652.93872	-720.87347	35.19767	485.78088	720.30188	36.42785	494.38211	-27.47549	1243.80811	-1053.71350	
6593	65.920	-813.26422	-32.44892	-647.23004	756.57800	-30.87576	-652.74493	-722.10120	36.48071	485.87579	720.62158	36.15582	494.53055	-27.24961	1244.38757	-1054.27893	
6594	65.930	-813.44263	-32.04355	-647.33484	756.58472	-30.71153	-652.78217	-721.30499	35.17463	485.77780	720.65247	35.96908	494.66119	-27.68402	1245.10425	-1054.74841	
6595	65.940	-813.40918	-31.89764	-647.34119	756.52948	-30.37363	-652.76080	-721.32550	34.88512	485.99350	720.75439	35.80372	494.90802	-27.72213	1245.72571	-1055.41431	
6596	65.950	-813.35974	-31.31810	-647.11029	756.46515	-29.58450	-652.69513	-721.28943	34.71244	486.17700	720.63953	35.30549	495.06668	-27.63496	1246.32349	-1055.66992	
6597	65.960	-813.28986	-30.84021	-647.11798	756.55200	-29.25622	-652.60101	-721.25739	34.57964	486.29803	720.54871	34.97501	495.25433	-27.25025	1246.92456	-1055.92139	
6598	65.970	-813.09692	-30.43298	-646.92981	756.52637	-28.99301	-652.55823	-721.22540	34.44627	486.34274	720.53137	34.79609	495.33078	-27.10937	1247.29260	-1056.23840	
6599	65.980	-813.35034	-30.36219	-646.97162	756.82178	-28.65738	-652.23010	-721.18182	34.25214	486.39682	720.51355	34.45552	495.31915	-27.29809	1247.90491	-1056.26038	
6600	65.990	-813.13672	-30.09550	-646.74030	756.71033	-28.31646	-652.20868	-721.25110	34.03312	486.51010	720.59241	34.34234	495.33734	-27.51691	1248.36816	-1056.16296	
6601	66.000	-813.29718	-29.74150	-647.06342	756.61572	-28.13029	-652.15912	-721.41705	33.74277	486.56387	720.58502	34.14025	495.38687	-27.47104	1248.86072	-1055.84949	
6602	66.010	-813.28790	-29.42614	-646.98303	756.48260	-27.79944	-652.18719	-721.39374	33.56029	486.61670	720.58807	33.88083	495.48715	-27.14010	1249.40417	-1055.46924	
6603	66.020	-813.13300	-28.86724	-646.68646	756.59375	-27.44991	-652.08429	-721.36176	33.44921	486.70114	720.71265	33.74527	495.54758	-27.06498	1249.60217	-1055.15735	
6604	66.030	-813.07202	-28.51151	-646.56476	756.81006	-26.99743	-651.99890	-721.37946	33.35360	486.73904	720.73450	33.53013	495.63864	-26.91277	1249.99072	-1054.57019	
6605	66.040	-813.14020	-28.34139	-646.62634	756.76556	-26.73704	-652.05530	-721.44989	33.14801	486.74045	720.81866	33.34478	495.69104	-26.69620	1250.47388	-1053.80164	
6606	66.050	-813.11493	-28.15525	-646.57483	756.67767	-26.48785	-652.06390	-721.47040	32.83839	486.82211	720.91687	33.23507	495.78400	-27.04963	1251.06592	-1053.02393	
6607	66.060	-813.13544	-27.74946	-646.58630	756.63367	-26.26557	-652.04016	-721.31140	32.50480	486.95618	720.88147	32.99994	495.81848	-26.86969	1251.73657	-1052.03223	
6608	66.070	-812.99677	-27.38838	-646.57190	756.61639	-25.99517	-651.97095	-721.24915	32.37283	487.10172	720.82513	32.71965	495.96088	-27.22268	1252.18213	-1050.74487	
6609	66.080	-813.08276	-27.02989	-646.46472	756.74323	-25.61177	-651.65991	-721.17169	32.24932	487.22989	720.58942	32.60593	496.10803	-26.83083	1252.74158	-1049.68579	
6610	66.090	-813.12219	-26.80670	-646.35651	756.81042	-25.34240	-651.60516	-721.15320	32.05482	487.33957	720.65582	32.39394	496.15192	-26.90247	1253.03723	-1048.25806	
6611	66.100	-813.13281	-26.68660	-646.32214	756.88409	-25.08879	-651.61444	-721.09900	31.75907	487.45535	720.80096	32.08787	496.14435	-27.06513	1253.77063	-1046.86072	
6612	66.110	-813.14294	-26.49223	-646.28839	756.82440	-24.91334	-651.58435	-721.10272	31.43751	487.60382	720.84637	31.89044	496.29367	-27.58016	1254.23254	-1045.57190	
6613	66.120	-813.06781	-26.22388	-646.18268	756.80469	-24.69831	-651.50574	-721.04370	31.33121	487.72061	720.82556	31.61325	496.36435	-27.60836	1254.60205	-1043.71704	
6614	66.130	-813.06464	-25.90873	-646.14282	756.73193	-24.50606	-651.55859	-720.92554	31.16290	487.77988	720.81897	31.51488	496.43381	-27.45122	1255.01965	-1042.08875	
6615	66.140	-813.02881	-25.63051	-646.03827	756.75610	-24.25953	-651.56500	-720.95313	31.09554	487.81439	720.96057	31.51830	496.53418	-27.06219	1255.36926	-1040.06091	
6616	66.150	-813.04517	-25.45410	-645.97583	756.77289	-24.02993	-651.53363	-721.00470	31.02126	487.85425	721.00385	31.39107	496.59119	-27.19610	1255.81616	-1038.13538	
6617	66.160	-813.04822	-25.32215	-645.97815	756.78271	-23.85647	-651.51678	-720.86835	30.79311	487.99326	721.06921	31.23488	496.65167	-27.32480	1256.21375	-1036.09082	
6618	66.170	-812.83624	-25.14549	-645.86578	756.71478	-23.62395	-651.46124	-720.86920	30.53648	487.98706	721.15179	31.01797	496.78928	-27.39777	1256.48438	-1034.05518	
6619	66.180	-812.89270	-24.59046	-646.00500	756.75354	-23.31261	-651.36981	-720.85669	30.39163	488.00116	721.22290	30.90536	496.93988	-27.36839	1257.13672	-1031.84644	
6620	66.190	-812.94629	-24.24192	-645.97510	756.79010	-22.87327	-651.22198	-720.83228	30.27735	488.01926	720.98590	30.80702	497.02335	-27.45815	1257.86609	-1030.43408	
6621	66.200	-812.96722	-23.89019	-645.92126	756.91583	-22.62184	-651.10553	-720.72675	30.13890	488.15848	721.08386	30.64356	497.06351	-27.62406	1258.09900	-1029.35376	
6622	66.210	-812.96100	-23.72708	-645.83954	757.05219	-22.31252	-651.04346	-720.78180	29.91173	488.15128	721.00269	30.34394	497.05167	-27.74596	1258.48755	-1028.96973	
6623	66.220	-813.04071	-23.69221	-645.83325	756.97345	-22.20184	-651.04193	-720.88879	29.72739	488.12335	720.92969	30.20223	497.10092	-27.57234	1258.69263	-1029.23853	
6624	66.230	-812.87488	-23.54956	-645.85724	756.96887	-21.94563	-651.10156	-720.93689	29.56052	488.09085	721.14490	30.04257	497.10815	-27.25630	1258.79834	-1029.98059	
6625	66.240	-812.90308	-23.12845	-645.77661	756.94366	-21.79539	-651.17535	-720.95837	29.50109	488.06119	721.11353	29.90970	497.14148	-27.19249	1259.16956	-1030.98608	
6626	66.250	-812.87646	-23.06722	-645.72241	757.13177	-21.77649	-651.10443	-720.92584	29.56360	488.10645	721.22552	29.76840	497.17209	-27.25127	1259.40894	-1031.68945	
6627	66.260	-813.04681	-22.99241	-645.56366	757.01678	-21.50253	-651.09503	-721.02399	29.50458	488.23804	720.37183	28.96815	497.58151	-26.66876	1259.67004	-1032.49683	
6628	66.270	-813.03082	-23.01193	-645.53241	756.97913	-21.19039	-651.14752	-721.04700	29.29082	488.31168	720.69958	29.03491	497.51855	-26.66042	1259.90601	-1032.82959	
6629	66.280	-812.94666	-22.86729	-645.46838	756.93896	-21.16829	-651.10333	-720.98828	29.14514	488.36032	720.87024	29.06679	497.80414	-26.69468	1260.10278	-1033.38586	
6630	66.290	-812.85742	-22.73117	-645.39819	756.87128	-21.15360	-651.06744	-720.94965	29.10498	488.37933	720.87781	28.92289	497.82324	-26.80570	1260.33301	-1033.97095	
6631	66.300	-812.76398	-22.42844	-645.27722	756.92407	-20.61768	-650.89905	-720.89215	28.95588	488.47449	720.92267	28.87864	497.87564	-26.69990	1260.48621	-1034.19910	
6632	66.310	-812.69757	-22.11813	-645.18500	757.11108	-20.22121	-650.77692	-720.87622	28.86314	488.51126	721.12396	28.80986	497.91299	-26.52462	1260.65808	-1034.20850	
6633	66.320	-812.68573	-21.92931	-645.21924	757.19592	-20.11539	-650.67279	-720.91949	28.79727	488.57715	720.69879	28.41658	497.60886	-26.68002	1260.99731	-1034.31274	
